<?xml version="1.0" encoding="utf-8"?>
<svg version="1.1" xmlns:xlink="http://www.w3.org/1999/xlink" width="30px" height="30px" xmlns="http://www.w3.org/2000/svg">
  <g transform="matrix(1 0 0 1 -10 -5 )">
    <path d="M 7.84390243902439 11.538461538461537  L 3.117073170731707 11.538461538461537  L 12.234146341463413 23.52764423076923  L 7.84390243902439 11.538461538461537  Z M 9.892682926829268 12  L 15 25.45673076923077  L 20.107317073170734 12  L 9.892682926829268 12  Z M 2.824390243902439 9.230769230769232  L 7.887804878048781 9.230769230769232  L 10.873170731707317 2.307692307692306  L 7.0390243902439025 2.307692307692306  L 2.824390243902439 9.230769230769232  Z M 22.15609756097561 11.538461538461537  L 17.765853658536585 23.52764423076923  L 26.882926829268293 11.538461538461537  L 22.15609756097561 11.538461538461537  Z M 12.995121951219511 2.307692307692306  L 10.009756097560976 9.230769230769232  L 19.990243902439026 9.230769230769232  L 17.004878048780487 2.307692307692306  L 12.995121951219511 2.307692307692306  Z M 19.126829268292685 2.307692307692306  L 22.11219512195122 9.230769230769232  L 27.17560975609756 9.230769230769232  L 22.960975609756098 2.307692307692306  L 19.126829268292685 2.307692307692306  Z M 23.429268292682927 0  C 23.751219512195124 0  24 0.15624999999999778  24.17560975609756 0.46875  L 29.795121951219514 9.699519230769232  C 29.931707317073172 9.915865384615385  29.995121951219517 10.16526442307692  29.985365853658536 10.447716346153847  C 29.975609756097562 10.730168269230766  29.89268292682927 10.973557692307688  29.736585365853657 11.177884615384615  L 15.68780487804878 29.639423076923077  C 15.512195121951219 29.87980769230769  15.282926829268295 30  15 30  C 14.717073170731709 30  14.487804878048781 29.87980769230769  14.31219512195122 29.639423076923077  L 0.2634146341463415 11.177884615384615  C 0.1073170731707317 10.973557692307688  0.024390243902439025 10.730168269230766  0.014634146341463414 10.447716346153847  C 0.004878048780487804 10.16526442307692  0.06829268292682926 9.915865384615385  0.2048780487804878 9.699519230769232  L 5.824390243902439 0.46875  C 6 0.15624999999999778  6.248780487804877 0  6.570731707317073 0  L 23.429268292682927 0  Z " fill-rule="nonzero" fill="#ffffff" stroke="none" transform="matrix(1 0 0 1 10 5 )" />
  </g>
</svg>