<?xml version="1.0" encoding="utf-8"?>
<svg version="1.1" xmlns:xlink="http://www.w3.org/1999/xlink" width="12px" height="12px" xmlns="http://www.w3.org/2000/svg">
  <g transform="matrix(1 0 0 1 -575 -70 )">
    <path d="M 11.717171717171716 8.969696969696969  C 11.905723905723907 9.158249158249156  12 9.387205387205386  12 9.656565656565657  C 12 9.925925925925927  11.905723905723907 10.154882154882154  11.717171717171716 10.343434343434343  L 10.343434343434343 11.717171717171716  C 10.154882154882156 11.905723905723907  9.925925925925926 12  9.656565656565657 12  C 9.387205387205388 12  9.15824915824916 11.905723905723907  8.96969696969697 11.717171717171716  L 6 8.747474747474747  L 3.0303030303030303 11.717171717171716  C 2.841750841750842 11.905723905723907  2.612794612794613 12  2.3434343434343434 12  C 2.0740740740740744 12  1.8451178451178454 11.905723905723907  1.6565656565656566 11.717171717171716  L 0.2828282828282828 10.343434343434343  C 0.09427609427609437 10.154882154882154  0 9.925925925925927  0 9.656565656565657  C 0 9.387205387205386  0.09427609427609437 9.158249158249156  0.2828282828282828 8.969696969696969  L 3.2525252525252526 6  L 0.2828282828282828 3.03030303030303  C 0.09427609427609437 2.841750841750841  0 2.612794612794613  0 2.3434343434343434  C 0 2.074074074074074  0.09427609427609437 1.8451178451178434  0.2828282828282828 1.656565656565657  L 1.6565656565656566 0.2828282828282829  C 1.8451178451178454 0.09427609427609385  2.0740740740740744 0  2.3434343434343434 0  C 2.612794612794613 0  2.841750841750842 0.09427609427609385  3.0303030303030303 0.2828282828282829  L 6 3.252525252525253  L 8.96969696969697 0.2828282828282829  C 9.15824915824916 0.09427609427609385  9.387205387205388 0  9.656565656565657 0  C 9.925925925925926 0  10.154882154882156 0.09427609427609385  10.343434343434343 0.2828282828282829  L 11.717171717171716 1.656565656565657  C 11.905723905723907 1.8451178451178434  12 2.074074074074074  12 2.3434343434343434  C 12 2.612794612794613  11.905723905723907 2.841750841750841  11.717171717171716 3.03030303030303  L 8.747474747474747 6  L 11.717171717171716 8.969696969696969  Z " fill-rule="nonzero" fill="#8c8c8c" stroke="none" transform="matrix(1 0 0 1 575 70 )" />
  </g>
</svg>