<?xml version="1.0" encoding="utf-8"?>
<svg version="1.1" xmlns:xlink="http://www.w3.org/1999/xlink" width="1020px" height="606px" xmlns="http://www.w3.org/2000/svg">
  <defs>
    <mask fill="white" id="clip13">
      <path d="M 0 601  L 0 4.999999999999999  C 0 2.1999999999999886  2.1999999999999886 0  5 0  L 434.7550137750467 0  L 1015 0  C 1017.8 0  1020 2.1999999999999886  1020 4.999999999999999  L 1020 601  C 1020 603.8000000000001  1017.8 606  1015 606  L 5 606  C 2.1999999999999886 606  0 603.8000000000001  0 601  Z " fill-rule="evenodd" />
    </mask>
  </defs>
  <g transform="matrix(1 0 0 1 -308 -193 )">
    <path d="M 0 601  L 0 4.999999999999999  C 0 2.1999999999999886  2.1999999999999886 0  5 0  L 434.7550137750467 0  L 1015 0  C 1017.8 0  1020 2.1999999999999886  1020 4.999999999999999  L 1020 601  C 1020 603.8000000000001  1017.8 606  1015 606  L 5 606  C 2.1999999999999886 606  0 603.8000000000001  0 601  Z " fill-rule="nonzero" fill="#ffffff" stroke="none" transform="matrix(1 0 0 1 308 193 )" />
    <path d="M 0 601  L 0 4.999999999999999  C 0 2.1999999999999886  2.1999999999999886 0  5 0  L 434.7550137750467 0  L 1015 0  C 1017.8 0  1020 2.1999999999999886  1020 4.999999999999999  L 1020 601  C 1020 603.8000000000001  1017.8 606  1015 606  L 5 606  C 2.1999999999999886 606  0 603.8000000000001  0 601  Z " stroke-width="2" stroke="#d7d7d7" fill="none" transform="matrix(1 0 0 1 308 193 )" mask="url(#clip13)" />
  </g>
</svg>